<svg xmlns="http://www.w3.org/2000/svg" width="55.308" height="53.485" viewBox="0 0 55.308 53.485">
  <g id="_x35_" transform="translate(-2 -3.055)">
    <g id="Group_150" data-name="Group 150" transform="translate(2 3.055)">
      <g id="Group_106" data-name="Group 106">
        <g id="Group_96" data-name="Group 96" transform="translate(0.778 1.413)">
          <g id="Group_95" data-name="Group 95">
            <path id="Path_232" data-name="Path 232" d="M55.34,31.976l-35.608,19.6a4.035,4.035,0,0,1-5.48-1.589L3.4,30.267a4.035,4.035,0,0,1,1.589-5.48L40.6,5.191a4.035,4.035,0,0,1,5.48,1.589L56.929,26.5a4.035,4.035,0,0,1-1.589,5.48Z" transform="translate(-2.9 -4.69)" fill="#febc1f"/>
          </g>
        </g>
        <g id="Group_98" data-name="Group 98" transform="translate(0)">
          <g id="Group_97" data-name="Group 97">
            <path id="Path_233" data-name="Path 233" d="M54.44,30.341l-35.608,19.6a4.035,4.035,0,0,1-5.48-1.589L2.5,28.632a4.035,4.035,0,0,1,1.589-5.48L39.7,3.555a4.035,4.035,0,0,1,5.48,1.589L56.029,24.861a4.035,4.035,0,0,1-1.589,5.48Z" transform="translate(-2 -3.055)" fill="#ffd475"/>
          </g>
        </g>
        <g id="Group_101" data-name="Group 101" transform="translate(0 0.002)">
          <g id="Group_100" data-name="Group 100">
            <g id="Group_99" data-name="Group 99">
              <path id="Path_234" data-name="Path 234" d="M39.7,3.556,4.09,23.153A4.035,4.035,0,0,0,2.5,28.633L13.352,48.349S3.241,29.013,43.3,3.416a4.024,4.024,0,0,0-3.6.14Z" transform="translate(-2 -3.057)" fill="#febc1f"/>
            </g>
          </g>
        </g>
        <g id="Group_103" data-name="Group 103" transform="translate(3.53 5.41)">
          <g id="Group_102" data-name="Group 102">
            <path id="Path_235" data-name="Path 235" d="M6.245,31.9l1.363,2.476a1.29,1.29,0,0,0,1.752.508L46.924,14.211a1.29,1.29,0,0,0,.508-1.752L46.069,9.983a1.29,1.29,0,0,0-1.752-.508L6.753,30.149A1.29,1.29,0,0,0,6.245,31.9Z" transform="translate(-6.085 -9.315)" fill="#1d2943"/>
          </g>
        </g>
        <g id="Group_105" data-name="Group 105" transform="translate(3.152 4.724)">
          <g id="Group_104" data-name="Group 104">
            <path id="Path_236" data-name="Path 236" d="M5.808,31.106l1.363,2.476a1.29,1.29,0,0,0,1.752.508L46.487,13.417a1.29,1.29,0,0,0,.508-1.752L45.632,9.189a1.29,1.29,0,0,0-1.752-.508L6.316,29.355a1.29,1.29,0,0,0-.508,1.752Z" transform="translate(-5.648 -8.521)" fill="#4c5c75"/>
          </g>
        </g>
      </g>
      <g id="Group_108" data-name="Group 108" transform="translate(2.1 22.91)">
        <g id="Group_107" data-name="Group 107">
          <path id="Path_237" data-name="Path 237" d="M49.109,60.14H8.465A4.035,4.035,0,0,1,4.43,56.106V33.6a4.035,4.035,0,0,1,4.035-4.035H49.109A4.035,4.035,0,0,1,53.144,33.6V56.105A4.035,4.035,0,0,1,49.109,60.14Z" transform="translate(-4.43 -29.566)" fill="#5094ff"/>
        </g>
      </g>
      <g id="Group_110" data-name="Group 110" transform="translate(2.1 21.297)">
        <g id="Group_109" data-name="Group 109" transform="translate(0)">
          <path id="Path_238" data-name="Path 238" d="M8.465,58.274H49.109a4.035,4.035,0,0,0,4.035-4.035V31.734A4.035,4.035,0,0,0,49.109,27.7H8.465A4.035,4.035,0,0,0,4.43,31.734V54.239A4.035,4.035,0,0,0,8.465,58.274Z" transform="translate(-4.43 -27.699)" fill="#57b3fe"/>
        </g>
      </g>
      <g id="Group_113" data-name="Group 113" transform="translate(2.913 21.297)">
        <g id="Group_112" data-name="Group 112">
          <g id="Group_111" data-name="Group 111">
            <path id="Path_239" data-name="Path 239" d="M8.592,27.7H49.237a4.035,4.035,0,0,1,4.035,4.035V54.239s-.465-21.816-47.9-24.927A4.024,4.024,0,0,1,8.592,27.7Z" transform="translate(-5.371 -27.699)" fill="#5094ff"/>
          </g>
        </g>
      </g>
      <g id="Group_134" data-name="Group 134" transform="translate(5.261 43.077)">
        <g id="Group_118" data-name="Group 118" transform="translate(35.198 0)">
          <g id="Group_115" data-name="Group 115" transform="translate(0 0.529)">
            <g id="Group_114" data-name="Group 114">
              <path id="Path_240" data-name="Path 240" d="M56.011,54.539v.626H56a1.548,1.548,0,0,1-1.542,1.558H50.368a1.549,1.549,0,0,1-1.542-1.558h-.008v-.626h.1a1.723,1.723,0,0,1,1.591-1.025h3.81a1.723,1.723,0,0,1,1.592,1.025Z" transform="translate(-48.818 -53.514)" fill="#e3e7f0"/>
            </g>
          </g>
          <g id="Group_117" data-name="Group 117" transform="translate(0.003)">
            <g id="Group_116" data-name="Group 116">
              <path id="Path_241" data-name="Path 241" d="M54.458,56.018H50.5a1.643,1.643,0,0,1-1.663-1.331A1.56,1.56,0,0,1,50.38,52.9h3.942a1.645,1.645,0,0,1,1.684,1.457,1.553,1.553,0,0,1-1.548,1.659Z" transform="translate(-48.822 -52.902)" fill="#fff"/>
            </g>
          </g>
        </g>
        <g id="Group_123" data-name="Group 123" transform="translate(23.465)">
          <g id="Group_120" data-name="Group 120" transform="translate(0 0.529)">
            <g id="Group_119" data-name="Group 119">
              <path id="Path_242" data-name="Path 242" d="M42.435,54.539v.626h-.008a1.548,1.548,0,0,1-1.542,1.558H36.791a1.549,1.549,0,0,1-1.542-1.558h-.008v-.626h.1a1.723,1.723,0,0,1,1.591-1.025h3.81a1.723,1.723,0,0,1,1.592,1.025Z" transform="translate(-35.241 -53.514)" fill="#e3e7f0"/>
            </g>
          </g>
          <g id="Group_122" data-name="Group 122" transform="translate(0.003)">
            <g id="Group_121" data-name="Group 121">
              <path id="Path_243" data-name="Path 243" d="M40.881,56.018H36.924a1.643,1.643,0,0,1-1.663-1.331A1.56,1.56,0,0,1,36.8,52.9h3.942a1.645,1.645,0,0,1,1.684,1.457,1.553,1.553,0,0,1-1.548,1.659Z" transform="translate(-35.245 -52.902)" fill="#fff"/>
            </g>
          </g>
        </g>
        <g id="Group_128" data-name="Group 128" transform="translate(11.733 0)">
          <g id="Group_125" data-name="Group 125" transform="translate(0 0.529)">
            <g id="Group_124" data-name="Group 124">
              <path id="Path_244" data-name="Path 244" d="M28.858,54.539v.626H28.85a1.548,1.548,0,0,1-1.542,1.558H23.215a1.549,1.549,0,0,1-1.542-1.558h-.008v-.626h.1a1.723,1.723,0,0,1,1.591-1.025h3.81a1.723,1.723,0,0,1,1.592,1.025Z" transform="translate(-21.665 -53.514)" fill="#e3e7f0"/>
            </g>
          </g>
          <g id="Group_127" data-name="Group 127" transform="translate(0.003)">
            <g id="Group_126" data-name="Group 126">
              <path id="Path_245" data-name="Path 245" d="M27.3,56.018H23.347a1.643,1.643,0,0,1-1.663-1.331A1.56,1.56,0,0,1,23.227,52.9h3.942a1.645,1.645,0,0,1,1.684,1.457A1.553,1.553,0,0,1,27.3,56.018Z" transform="translate(-21.669 -52.902)" fill="#fff"/>
            </g>
          </g>
        </g>
        <g id="Group_133" data-name="Group 133" transform="translate(0 0)">
          <g id="Group_130" data-name="Group 130" transform="translate(0 0.529)">
            <g id="Group_129" data-name="Group 129">
              <path id="Path_246" data-name="Path 246" d="M15.282,54.539v.626h-.008a1.548,1.548,0,0,1-1.542,1.558H9.638A1.549,1.549,0,0,1,8.1,55.165H8.088v-.626h.1A1.723,1.723,0,0,1,9.78,53.514h3.81a1.723,1.723,0,0,1,1.592,1.025Z" transform="translate(-8.088 -53.514)" fill="#e3e7f0"/>
            </g>
          </g>
          <g id="Group_132" data-name="Group 132" transform="translate(0.003)">
            <g id="Group_131" data-name="Group 131">
              <path id="Path_247" data-name="Path 247" d="M13.728,56.018H9.771a1.643,1.643,0,0,1-1.663-1.331A1.56,1.56,0,0,1,9.65,52.9h3.942a1.645,1.645,0,0,1,1.684,1.457,1.553,1.553,0,0,1-1.548,1.659Z" transform="translate(-8.092 -52.902)" fill="#fff"/>
            </g>
          </g>
        </g>
      </g>
      <g id="Group_139" data-name="Group 139" transform="translate(5.265 26.101)">
        <g id="Group_136" data-name="Group 136" transform="translate(0 0.587)">
          <g id="Group_135" data-name="Group 135">
            <path id="Path_248" data-name="Path 248" d="M8.092,35.656V39.42A1.718,1.718,0,0,0,9.81,41.139H16.86a1.718,1.718,0,0,0,1.718-1.718V35.656a1.718,1.718,0,0,0-1.718-1.718H9.81a1.718,1.718,0,0,0-1.718,1.718Z" transform="translate(-8.092 -33.937)" fill="#febc1f"/>
          </g>
        </g>
        <g id="Group_138" data-name="Group 138">
          <g id="Group_137" data-name="Group 137">
            <path id="Path_249" data-name="Path 249" d="M8.092,34.977v3.765A1.718,1.718,0,0,0,9.81,40.46H16.86a1.718,1.718,0,0,0,1.718-1.718V34.977a1.718,1.718,0,0,0-1.718-1.718H9.81a1.718,1.718,0,0,0-1.718,1.718Z" transform="translate(-8.092 -33.258)" fill="#ffd475"/>
          </g>
        </g>
      </g>
      <g id="Group_142" data-name="Group 142" transform="translate(5.265 26.102)">
        <g id="Group_141" data-name="Group 141">
          <g id="Group_140" data-name="Group 140">
            <path id="Path_250" data-name="Path 250" d="M13.152,36.453V33.258h-.816v3.194H8.092v.816h2.322V40.46h.816V37.269h3.675V40.46h.816V37.269h2.857v-.816Z" transform="translate(-8.092 -33.258)" fill="#febc1f"/>
          </g>
        </g>
      </g>
      <g id="Group_149" data-name="Group 149" transform="translate(38.034 27.414)">
        <g id="Group_145" data-name="Group 145" transform="translate(3.472 3.204)">
          <g id="Group_144" data-name="Group 144">
            <g id="Group_143" data-name="Group 143">
              <path id="Path_251" data-name="Path 251" d="M55.431,39.981h-4.6a.789.789,0,0,1-.8-.639.749.749,0,0,1,.741-.858h4.588a.79.79,0,0,1,.809.7A.746.746,0,0,1,55.431,39.981Z" transform="translate(-50.029 -38.485)" fill="#fff"/>
            </g>
          </g>
        </g>
        <g id="Group_148" data-name="Group 148">
          <g id="Group_147" data-name="Group 147">
            <g id="Group_146" data-name="Group 146">
              <path id="Path_252" data-name="Path 252" d="M54.885,36.274H46.818a.789.789,0,0,1-.8-.639.749.749,0,0,1,.741-.858h8.06a.79.79,0,0,1,.809.7A.746.746,0,0,1,54.885,36.274Z" transform="translate(-46.011 -34.777)" fill="#fff"/>
            </g>
          </g>
        </g>
      </g>
    </g>
    <g id="Group_152" data-name="Group 152" transform="translate(47.681 14.519)">
      <g id="Group_151" data-name="Group 151">
        <path id="Path_253" data-name="Path 253" d="M54.861,16.32a34.819,34.819,0,0,1,4.693,8.028A34.809,34.809,0,0,1,54.861,16.32Z" transform="translate(-54.861 -16.32)" fill="#fff"/>
      </g>
    </g>
    <g id="Group_154" data-name="Group 154" transform="translate(11.89 17.184)">
      <g id="Group_153" data-name="Group 153">
        <path id="Path_254" data-name="Path 254" d="M13.444,24.765a44.4,44.4,0,0,1,9.036-5.36,44.4,44.4,0,0,1-9.036,5.36Z" transform="translate(-13.444 -19.405)" fill="#fff"/>
      </g>
    </g>
    <g id="Group_156" data-name="Group 156" transform="translate(35.005 52.589)">
      <g id="Group_155" data-name="Group 155">
        <path id="Path_255" data-name="Path 255" d="M40.192,60.686a44.4,44.4,0,0,1,10.506,0A44.4,44.4,0,0,1,40.192,60.686Z" transform="translate(-40.192 -60.374)" fill="#fff"/>
      </g>
    </g>
  </g>
</svg>
