<svg xmlns="http://www.w3.org/2000/svg" width="49.157" height="49.159" viewBox="0 0 49.157 49.159">
  <g id="airplane-ticket" transform="translate(-0.046 0.001)">
    <path id="Path_77" data-name="Path 77" d="M94.449,24.738a3.355,3.355,0,0,1-2.82,2.9c2.24.106,2.8,3.044,2.8,3.044.048-2.095,2.884-3.075,2.884-3.075C95.187,27.479,94.449,24.738,94.449,24.738Zm0,0" transform="translate(-81.669 -22.061)" fill="#d7e057"/>
    <path id="Path_78" data-name="Path 78" d="M94.66,24.612c-1.863-.111-2.561-2.6-2.569-2.629a.325.325,0,0,0-.637.058,3.006,3.006,0,0,1-2.545,2.605.325.325,0,0,0,.033.645c1.955.092,2.49,2.754,2.5,2.781a.325.325,0,0,0,.318.263h.027a.325.325,0,0,0,.3-.316c.042-1.843,2.64-2.767,2.666-2.775a.325.325,0,0,0-.088-.631Zm-2.937,2.24A3.785,3.785,0,0,0,90.08,24.93a3.484,3.484,0,0,0,1.776-1.791,3.965,3.965,0,0,0,1.8,1.889A4.617,4.617,0,0,0,91.722,26.852Zm0,0" transform="translate(-78.997 -19.39)" fill="#3a312a"/>
    <path id="Path_79" data-name="Path 79" d="M57.854,58.7a2.373,2.373,0,0,1-1.994,2.051c1.584.074,1.979,2.153,1.979,2.153.034-1.482,2.04-2.175,2.04-2.175-1.5-.09-2.025-2.029-2.025-2.029Zm0,0" transform="translate(-49.771 -52.349)" fill="#d7e057"/>
    <path id="Path_80" data-name="Path 80" d="M57.222,57.728c-1.248-.074-1.726-1.772-1.731-1.789a.325.325,0,0,0-.637.058,2.035,2.035,0,0,1-1.72,1.757.325.325,0,0,0,.034.646c1.307.061,1.672,1.871,1.675,1.889a.325.325,0,0,0,.319.264h.027a.325.325,0,0,0,.3-.316c.028-1.236,1.8-1.87,1.822-1.876a.325.325,0,0,0-.087-.631ZM55.147,59.2a2.771,2.771,0,0,0-.963-1.143,2.588,2.588,0,0,0,1.054-1.065,2.9,2.9,0,0,0,1.07,1.131A3.392,3.392,0,0,0,55.147,59.2Zm0,0" transform="translate(-47.096 -49.669)" fill="#3a312a"/>
    <path id="Path_81" data-name="Path 81" d="M57.854,5.387a2.373,2.373,0,0,1-1.994,2.05c1.584.074,1.979,2.153,1.979,2.153.034-1.482,2.04-2.175,2.04-2.175-1.5-.09-2.025-2.029-2.025-2.029Zm0,0" transform="translate(-49.771 -4.804)" fill="#d7e057"/>
    <path id="Path_82" data-name="Path 82" d="M57.223,4.411c-1.248-.075-1.726-1.772-1.731-1.79a.325.325,0,0,0-.637.058,2.034,2.034,0,0,1-1.719,1.757.325.325,0,0,0,.033.646c1.307.061,1.672,1.871,1.675,1.889a.325.325,0,0,0,.319.264h.027a.325.325,0,0,0,.3-.316c.028-1.236,1.8-1.87,1.822-1.876a.325.325,0,0,0-.087-.631ZM55.148,5.883a2.774,2.774,0,0,0-.963-1.143,2.59,2.59,0,0,0,1.055-1.064,2.9,2.9,0,0,0,1.07,1.131,3.393,3.393,0,0,0-1.162,1.077Zm0,0" transform="translate(-47.096 -2.125)" fill="#3a312a"/>
    <path id="Path_83" data-name="Path 83" d="M50.956,16.691l-4.648-4.648-.013.012a2.706,2.706,0,0,1-3.828-3.828l.013-.012L37.832,3.568a1.993,1.993,0,0,0-2.82,0l-31.4,31.4a1.994,1.994,0,0,0,0,2.82l4.65,4.65A.466.466,0,0,1,8.3,42.4a2.706,2.706,0,0,1,3.828,3.828.466.466,0,0,1-.04.037l4.65,4.65a1.993,1.993,0,0,0,2.82,0l31.4-31.4a1.993,1.993,0,0,0,0-2.82Zm0,0" transform="translate(-2.66 -2.661)" fill="#8ac6dd"/>
    <path id="Path_84" data-name="Path 84" d="M48.525,13.8,43.877,9.153a.339.339,0,0,0-.471.012,2.382,2.382,0,1,1-3.356-3.381.325.325,0,0,0,0-.459L35.4.677a2.322,2.322,0,0,0-3.28,0L29.676,3.123a.325.325,0,1,0,.459.459l2.446-2.446a1.672,1.672,0,0,1,2.361,0l4.429,4.429A3.031,3.031,0,0,0,43.636,9.83l4.431,4.431a1.672,1.672,0,0,1,0,2.361l-31.4,31.4a1.668,1.668,0,0,1-2.361,0L9.88,43.593a3.031,3.031,0,0,0-4.27-4.27L1.183,34.9a1.672,1.672,0,0,1,0-2.361L28.164,5.554a.325.325,0,0,0-.459-.459L.724,32.076a2.321,2.321,0,0,0,0,3.279L5.374,40a.325.325,0,0,0,.255.089.34.34,0,0,0,.241-.129,2.382,2.382,0,1,1,3.358,3.379.325.325,0,0,0-.03.485l4.65,4.65a2.318,2.318,0,0,0,3.279,0l31.4-31.4a2.322,2.322,0,0,0,0-3.28Zm0,0" fill="#3a312a"/>
    <path id="Path_85" data-name="Path 85" d="M228.4,77.986a.325.325,0,1,0-.459.459l1.225,1.225a.325.325,0,0,0,.459-.459Zm-2.45-2.449a.325.325,0,0,0-.459.459l1.225,1.225a.325.325,0,0,0,.46-.459Zm4.9,4.9a.325.325,0,0,0-.459.459l1.225,1.225a.325.325,0,0,0,.459-.459Zm7.349,7.349a.325.325,0,1,0-.459.459l1.225,1.225a.325.325,0,0,0,.459-.459Zm3.637,3.638-1.187-1.188a.325.325,0,1,0-.459.459l1.187,1.188a.325.325,0,1,0,.459-.459Zm-8.536-8.537a.325.325,0,1,0-.459.459l1.225,1.225a.325.325,0,0,0,.459-.459Zm2.45,2.449a.325.325,0,0,0-.459.459l1.225,1.225a.325.325,0,1,0,.459-.459Zm0,0" transform="translate(-200.949 -67.275)" fill="#3a312a"/>
    <path id="Path_86" data-name="Path 86" d="M51.953,131.466h.017v-6.574a1.993,1.993,0,0,0-1.994-1.994H5.572a1.993,1.993,0,0,0-1.994,1.994v6.576a.462.462,0,0,1,.054,0,2.706,2.706,0,0,1,0,5.413.387.387,0,0,1-.054,0v6.576a1.993,1.993,0,0,0,1.994,1.994h44.4a1.993,1.993,0,0,0,1.994-1.994v-6.573h-.017a2.706,2.706,0,0,1,0-5.413Zm0,0" transform="translate(-3.15 -109.594)" fill="#fce8cb"/>
    <path id="Path_87" data-name="Path 87" d="M49.295,129.116a.325.325,0,0,0,.325-.325v-6.574A2.321,2.321,0,0,0,47.3,119.9H9.918a.325.325,0,0,0,0,.65H47.3a1.671,1.671,0,0,1,1.67,1.669v6.264a3.031,3.031,0,0,0,0,6.03v6.266a1.671,1.671,0,0,1-1.67,1.669H2.9a1.671,1.671,0,0,1-1.669-1.669v-6.261a3.031,3.031,0,0,0,0-6.038v-6.261A1.671,1.671,0,0,1,2.9,120.548H7.225a.325.325,0,0,0,0-.65H2.9a2.322,2.322,0,0,0-2.319,2.319v6.576a.332.332,0,0,0,.117.243.341.341,0,0,0,.262.079,2.382,2.382,0,1,1-.015,4.764.32.32,0,0,0-.255.079.326.326,0,0,0-.11.243v6.576A2.322,2.322,0,0,0,2.9,143.1H47.3a2.322,2.322,0,0,0,2.319-2.319V134.2a.34.34,0,0,0-.342-.325,2.382,2.382,0,1,1,.017-4.763Zm0,0" transform="translate(-0.475 -106.919)" fill="#3a312a"/>
    <path id="Path_88" data-name="Path 88" d="M330.4,119.891a.325.325,0,0,0-.325.325v.866a.325.325,0,0,0,.65,0v-.866A.325.325,0,0,0,330.4,119.891Zm0,0" transform="translate(-294.303 -106.912)" fill="#3a312a"/>
    <path id="Path_89" data-name="Path 89" d="M330.4,152.194a.324.324,0,0,0-.325.325v1.595a.325.325,0,1,0,.65,0v-1.595A.325.325,0,0,0,330.4,152.194Zm0,3.19a.325.325,0,0,0-.325.325v1.6a.325.325,0,1,0,.65,0v-1.6A.325.325,0,0,0,330.4,155.384Zm0,3.19a.325.325,0,0,0-.325.325v1.595a.325.325,0,1,0,.65,0V158.9A.325.325,0,0,0,330.4,158.574Zm0-9.57a.325.325,0,0,0-.325.325v1.6a.325.325,0,0,0,.65,0v-1.6A.325.325,0,0,0,330.4,149Zm0-6.379a.324.324,0,0,0-.325.325v1.595a.325.325,0,1,0,.65,0V142.95A.325.325,0,0,0,330.4,142.625Zm0,3.189a.325.325,0,0,0-.325.325v1.6a.325.325,0,1,0,.65,0v-1.6A.325.325,0,0,0,330.4,145.815Zm0,0" transform="translate(-294.303 -127.185)" fill="#3a312a"/>
    <path id="Path_90" data-name="Path 90" d="M330.4,319.41a.324.324,0,0,0-.325.325v.866a.325.325,0,0,0,.65,0v-.866A.325.325,0,0,0,330.4,319.41Zm0,0" transform="translate(-294.303 -284.832)" fill="#3a312a"/>
    <path id="Path_91" data-name="Path 91" d="M41.781,234.934a.2.2,0,0,0-.1.079l-1.239,1.945a.2.2,0,0,0,.167.3h.862a.2.2,0,0,0,.148-.066l1.752-1.944a.175.175,0,0,0,.041-.072Zm0,0" transform="translate(-35.995 -209.501)" fill="#d7e057"/>
    <path id="Path_92" data-name="Path 92" d="M41.011,232.325a.326.326,0,0,0-.224-.143l-1.632-.247a.33.33,0,0,0-.154.014.524.524,0,0,0-.267.211L37.5,234.1a.523.523,0,0,0,.44.8H38.8a.526.526,0,0,0,.388-.172h0l1.752-1.944a.507.507,0,0,0,.113-.2.326.326,0,0,0-.042-.262Zm-2.268,1.935h-.575l1.056-1.657.891.135Zm0,0" transform="translate(-33.323 -206.824)" fill="#3a312a"/>
    <path id="Path_93" data-name="Path 93" d="M43.373,199.647,41.621,197.7a.2.2,0,0,0-.147-.066h-.863a.2.2,0,0,0-.167.3l1.239,1.945a.194.194,0,0,0,.136.088.933.933,0,0,1,.486-.166l1.116-.056a.194.194,0,0,0-.049-.1Zm0,0" transform="translate(-35.997 -176.241)" fill="#d7e057"/>
    <path id="Path_94" data-name="Path 94" d="M41.068,197.04a.514.514,0,0,0-.13-.282l-1.752-1.945a.527.527,0,0,0-.388-.172h-.862a.523.523,0,0,0-.441.8l1.24,1.947a.521.521,0,0,0,.365.234l.044,0a.324.324,0,0,0,.185-.058.6.6,0,0,1,.316-.109h0l1.116-.056a.325.325,0,0,0,.306-.365Zm-1.455-.228a1.239,1.239,0,0,0-.417.094l-1.03-1.616h.575l1.35,1.5Zm0,0" transform="translate(-33.321 -173.57)" fill="#3a312a"/>
    <path id="Path_95" data-name="Path 95" d="M132.794,261.313h-.611a.5.5,0,1,0,0,1h.611a.5.5,0,0,0,0-1Zm0,0" transform="translate(-117.386 -233.024)" fill="#f16c7a"/>
    <path id="Path_96" data-name="Path 96" d="M130.119,258.313h-.611a.824.824,0,1,0,0,1.648h.611a.824.824,0,0,0,0-1.648Zm0,1h-.611a.175.175,0,0,1,0-.349h.611a.175.175,0,0,1,0,.349Zm0,0" transform="translate(-114.711 -230.349)" fill="#3a312a"/>
    <path id="Path_97" data-name="Path 97" d="M123.505,279.387h-.611a.5.5,0,1,0,0,1h.611a.5.5,0,1,0,0-1Zm0,0" transform="translate(-109.103 -249.141)" fill="#f16c7a"/>
    <path id="Path_98" data-name="Path 98" d="M120.83,276.387h-.611a.824.824,0,1,0,0,1.648h.611a.824.824,0,1,0,0-1.648Zm0,1h-.611a.174.174,0,1,1,0-.349h.611a.174.174,0,1,1,0,.349Zm0,0" transform="translate(-106.428 -246.466)" fill="#3a312a"/>
    <path id="Path_99" data-name="Path 99" d="M114.239,239.734l-.818,6.357a.365.365,0,0,0,.69.209l.642-1.294.486-.979.49-.987.482-.97,1.088-2.19Zm0,0" transform="translate(-101.098 -213.781)" fill="#d7e057"/>
    <path id="Path_100" data-name="Path 100" d="M114.9,237.035a.325.325,0,0,0-.265-.16l-3.06-.147a.322.322,0,0,0-.338.283l-.818,6.357a.68.68,0,0,0,.485.749.72.72,0,0,0,.207.031.676.676,0,0,0,.61-.384l3.188-6.419A.324.324,0,0,0,114.9,237.035Zm-3.759,6.439c-.008.016-.016.03-.048.021s-.031-.027-.029-.044l.779-6.06,2.264.109Zm0,0" transform="translate(-98.423 -211.1)" fill="#3a312a"/>
    <path id="Path_101" data-name="Path 101" d="M132.794,183.535h-.611a.5.5,0,1,0,0,1h.611a.5.5,0,0,0,0-1Zm0,0" transform="translate(-117.386 -163.666)" fill="#f16c7a"/>
    <path id="Path_102" data-name="Path 102" d="M130.119,180.535h-.611a.824.824,0,0,0,0,1.648h.611a.824.824,0,0,0,0-1.648Zm0,1h-.611a.175.175,0,0,1,0-.349h.611a.175.175,0,0,1,0,.349Zm0,0" transform="translate(-114.711 -160.991)" fill="#3a312a"/>
    <path id="Path_103" data-name="Path 103" d="M123.505,165.465h-.611a.5.5,0,1,0,0,1h.611a.5.5,0,1,0,0-1Zm0,0" transform="translate(-109.103 -147.552)" fill="#f16c7a"/>
    <path id="Path_104" data-name="Path 104" d="M120.83,162.461h-.611a.824.824,0,1,0,0,1.648h.611a.824.824,0,1,0,0-1.648Zm0,1h-.611a.174.174,0,1,1,0-.349h.611a.174.174,0,1,1,0,.349Zm0,0" transform="translate(-106.428 -144.874)" fill="#3a312a"/>
    <path id="Path_105" data-name="Path 105" d="M116.211,156.239l-.482-.97-.49-.987-.487-.979-.642-1.294a.365.365,0,0,0-.689.209l.821,6.377,3.063-.154Zm0,0" transform="translate(-101.098 -135.371)" fill="#d7e057"/>
    <path id="Path_106" data-name="Path 106" d="M114.921,155.62l-3.194-6.433a.69.69,0,0,0-1.3.4l.821,6.377a.326.326,0,0,0,.322.283h.016l3.063-.154a.325.325,0,0,0,.275-.469Zm-3.07-.041-.782-6.079c0-.017,0-.034.029-.044l.019,0c.017,0,.023.011.029.024l2.974,5.989Zm0,0" transform="translate(-98.423 -132.694)" fill="#3a312a"/>
    <path id="Path_107" data-name="Path 107" d="M64,211.308,50.251,212a1.036,1.036,0,0,0,0,2.06L64,214.714a1.7,1.7,0,0,0,0-3.406Zm0,0" transform="translate(-43.944 -188.431)" fill="#f16c7a"/>
    <path id="Path_108" data-name="Path 108" d="M62.7,208.832a1.87,1.87,0,0,0-1.39-.523L47.563,209a1.36,1.36,0,0,0,0,2.709l13.746.657.09,0a1.87,1.87,0,0,0,1.3-.527,2.1,2.1,0,0,0,0-3.007Zm-.447,2.537a1.226,1.226,0,0,1-.908.346L47.6,211.058a.712.712,0,0,1,0-1.411l13.744-.689H61.4a1.224,1.224,0,0,1,.849.346,1.449,1.449,0,0,1,0,2.066Zm0,0" transform="translate(-41.272 -185.756)" fill="#3a312a"/>
    <path id="Path_109" data-name="Path 109" d="M53.063,234.934a.935.935,0,0,0,.525.194l1.107.052" transform="translate(-47.277 -209.501)" fill="#fce8cb"/>
    <g id="Group_92" data-name="Group 92" transform="translate(5.46 22.745)">
      <path id="Path_110" data-name="Path 110" d="M52.032,232.18l-1.106-.052a.613.613,0,0,1-.343-.127.325.325,0,1,0-.395.516,1.259,1.259,0,0,0,.707.26L52,232.83h.016a.325.325,0,0,0,.015-.649Zm0,0" transform="translate(-50.06 -229.571)" fill="#3a312a"/>
      <path id="Path_111" data-name="Path 111" d="M121.4,210.106l-3.063.154a.325.325,0,0,0,.016.649h.016l3.063-.154a.325.325,0,0,0-.033-.649Zm0,0" transform="translate(-110.673 -210.105)" fill="#3a312a"/>
      <path id="Path_112" data-name="Path 112" d="M219.027,305.227h-9.96a.325.325,0,1,0,0,.65h9.96a.325.325,0,1,0,0-.65Zm0,0" transform="translate(-191.563 -294.929)" fill="#3a312a"/>
      <path id="Path_113" data-name="Path 113" d="M219.027,284.559h-9.96a.325.325,0,1,0,0,.65h9.96a.325.325,0,1,0,0-.65Zm0,0" transform="translate(-191.563 -276.499)" fill="#3a312a"/>
      <path id="Path_114" data-name="Path 114" d="M219.027,263.891h-9.96a.325.325,0,1,0,0,.65h9.96a.325.325,0,1,0,0-.65Zm0,0" transform="translate(-191.563 -258.068)" fill="#3a312a"/>
      <path id="Path_115" data-name="Path 115" d="M368.4,217.891a.325.325,0,0,0-.325.325v9.96a.325.325,0,1,0,.65,0v-9.96A.325.325,0,0,0,368.4,217.891Zm0,0" transform="translate(-333.65 -217.048)" fill="#3a312a"/>
      <path id="Path_116" data-name="Path 116" d="M389.067,217.891a.325.325,0,0,0-.325.325v9.96a.325.325,0,1,0,.65,0v-9.96A.325.325,0,0,0,389.067,217.891Zm0,0" transform="translate(-352.077 -217.048)" fill="#3a312a"/>
    </g>
    <path id="Path_117" data-name="Path 117" d="M267.078,143.559h3.32v3.32h-3.32Zm0,0" transform="translate(-238.123 -128.018)" fill="#d7e057"/>
    <path id="Path_118" data-name="Path 118" d="M267.722,140.559H264.4a.324.324,0,0,0-.325.325v3.32a.324.324,0,0,0,.325.325h3.32a.324.324,0,0,0,.325-.325v-3.32A.325.325,0,0,0,267.722,140.559Zm-.325,3.32h-2.67v-2.671h2.67Zm0,0" transform="translate(-235.448 -125.343)" fill="#3a312a"/>
    <path id="Path_119" data-name="Path 119" d="M217.742,143.559h3.32v3.32h-3.32Zm0,0" transform="translate(-194.129 -128.018)" fill="#d7e057"/>
    <path id="Path_120" data-name="Path 120" d="M218.39,140.559h-3.32a.324.324,0,0,0-.325.325v3.32a.324.324,0,0,0,.325.325h3.32a.324.324,0,0,0,.325-.325v-3.32A.325.325,0,0,0,218.39,140.559Zm-.325,3.32H215.4v-2.671h2.67Zm0,0" transform="translate(-191.457 -125.343)" fill="#3a312a"/>
    <path id="Path_121" data-name="Path 121" d="M22.379,334.176l1.786,1.786H42.837a.522.522,0,0,1,.369.89l-9.074,9.074.144.144a1.331,1.331,0,0,0,.422.292,1.7,1.7,0,0,0,1.884-.345l11.843-11.842Zm0,0" transform="translate(-19.915 -297.999)" fill="#68a8bc"/>
    <path id="Path_122" data-name="Path 122" d="M409.679,133.832v-6.264a1.672,1.672,0,0,0-1.67-1.669h-1.877a1.672,1.672,0,0,1,1.67,1.669v6.264a3.031,3.031,0,0,0,0,6.03v6.266a1.672,1.672,0,0,1-1.67,1.669h1.877a1.672,1.672,0,0,0,1.67-1.669v-6.266a3.031,3.031,0,0,1,0-6.03Zm0,0" transform="translate(-361.184 -112.27)" fill="#ccae8b"/>
  </g>
</svg>
