<svg xmlns="http://www.w3.org/2000/svg" xmlns:xlink="http://www.w3.org/1999/xlink" width="985.96" height="749.375" viewBox="0 0 985.96 749.375">
  <defs>
    <clipPath id="clip-path">
      <rect id="Rectangle_3" data-name="Rectangle 3" width="623.763" height="381.639" transform="translate(0 698.361)" fill="none"/>
    </clipPath>
    <clipPath id="clip-path-2">
      <path id="Rectangle_9" data-name="Rectangle 9" d="M2.169,0H18.752a2.169,2.169,0,0,1,2.169,2.169V8.24a5.089,5.089,0,0,1-5.089,5.089H5.089A5.089,5.089,0,0,1,0,8.24V2.169A2.169,2.169,0,0,1,2.169,0Z" transform="translate(841.362 589.529) rotate(21.548)" fill="#e09841"/>
    </clipPath>
    <clipPath id="clip-path-3">
      <rect id="Rectangle_10" data-name="Rectangle 10" width="985.96" height="519.534" transform="translate(0 373.607)" fill="none"/>
    </clipPath>
    <clipPath id="clip-path-4">
      <path id="Path_14" data-name="Path 14" d="M160.681,657.578S27.365,555.943-33.178,495.145a28.437,28.437,0,0,0-19.072-8.318l-49.071-1.879A4.972,4.972,0,0,0-106.026,492L2.633,727.522Z" fill="#923ad8"/>
    </clipPath>
    <clipPath id="clip-path-5">
      <path id="Path_18" data-name="Path 18" d="M896.626,678.182l-5.967-10.261-528.3-69.732-4.022,19.178C377.111,663.35,388.7,726.716,388.7,726.716c43.562-9.882,99.828-19.285,163.449-27.139l-36.626,34.8,115.125-43.313C714.689,683.147,806.614,678.2,896.626,678.182Z" fill="#cee5f2"/>
    </clipPath>
    <clipPath id="clip-path-6">
      <path id="Path_25" data-name="Path 25" d="M-40.351,706.986,660.28,451.892a170.677,170.677,0,0,1,79.287-9.016h0a111.893,111.893,0,0,1,53.63,21.678l5.273,3.973a28.4,28.4,0,0,1,6.931,37.836L791.871,527.8a169.472,169.472,0,0,1-83.1,67.976l-40.705,12.78a426.928,426.928,0,0,0-107.7,51.46c-20.854,13.8-45.288,28.346-67.382,35.947-30.855,10.616-153.13,45.556-221.187,66.361a226.7,226.7,0,0,1-95.364,8.035c-75.08-9.7-213.922-27.557-245.01-30.9Z" fill="#fff"/>
    </clipPath>
    <clipPath id="clip-path-7">
      <path id="Path_24" data-name="Path 24" d="M-96.213,531.595S-2.919,650.748,125.174,639.809s301.2,54.291,99.349,61.358C-100.127,712.533,329,952.435,329,952.435L-297.731,828.609l-101.446-95.653-10.115-91.682Z" fill="#923ad8"/>
    </clipPath>
    <clipPath id="clip-path-8">
      <path id="Path_32" data-name="Path 32" d="M-40.351,706.986,660.28,451.892a170.677,170.677,0,0,1,79.287-9.016h0a111.893,111.893,0,0,1,53.63,21.678l5.273,3.973a28.4,28.4,0,0,1,6.931,37.836L791.871,527.8a169.472,169.472,0,0,1-83.1,67.976l-40.705,12.78a426.928,426.928,0,0,0-107.7,51.46c-20.854,13.8-45.288,28.346-67.382,35.947-30.855,10.616-153.13,45.556-221.187,66.361a226.7,226.7,0,0,1-95.364,8.035c-75.08-9.7-213.922-27.557-245.01-30.9Z" fill="none"/>
    </clipPath>
    <clipPath id="clip-path-9">
      <path id="Path_35" data-name="Path 35" d="M426.92,574.055l-708.3-36.214-10.56,12.506c58.3,13.581,117.186,26.862,174.415,39.736l-53.59,45.116,95.1-35.779q16.587,3.734,32.9,7.416l-48.527,38.459L-9.6,614.426q20.709,4.705,40.777,9.314L-5.506,658.6l71.328-26.835c97.647,22.779,179.8,43.6,230.4,61.677,0,0,106.216-30.644,146.917-84.6a21.727,21.727,0,0,0-16.22-34.783Z" fill="#cee5f2"/>
    </clipPath>
  </defs>
  <g id="OBJECTS" transform="translate(0 -330.625)">
    <g id="Group_36" data-name="Group 36">
      <g id="Group_9" data-name="Group 9">
        <g id="Group_8" data-name="Group 8" clip-path="url(#clip-path)">
          <g id="Group_7" data-name="Group 7">
            <g id="Group_5" data-name="Group 5">
              <path id="Path_2" data-name="Path 2" d="M458.151,1161.662c-64.69,8.2-319.8-78.58-374.578-71.632A176.051,176.051,0,1,1,234.789,884.767a79.771,79.771,0,0,1,114.067,88.947,118.058,118.058,0,1,1,109.3,187.948Z" fill="#fff"/>
              <circle id="Ellipse_8" data-name="Ellipse 8" cx="32.755" cy="32.755" r="32.755" transform="matrix(0.97, -0.245, 0.245, 0.97, 241.868, 799.632)" fill="#fff"/>
            </g>
            <g id="Group_6" data-name="Group 6">
              <path id="Path_3" data-name="Path 3" d="M42.557,723.186a176.053,176.053,0,0,1,195.518,144.04,79.774,79.774,0,0,1,114.081,88.891,117.754,117.754,0,1,1-18.077,34.972,79.7,79.7,0,0,1-119.74-.5,176.049,176.049,0,1,1-171.782-267.4Z" fill="none" stroke="#fff" stroke-width="1.184"/>
              <circle id="Ellipse_9" data-name="Ellipse 9" cx="32.755" cy="32.755" r="32.755" transform="matrix(0.509, -0.861, 0.861, 0.509, 240.059, 817.345)" fill="none" stroke="#fff" stroke-width="1.184"/>
            </g>
          </g>
        </g>
      </g>
      <g id="Group_10" data-name="Group 10" transform="translate(53.496 -4)">
        <path id="Path_4" data-name="Path 4" d="M397.023,414.025a36.6,36.6,0,0,0-36.205-22.983l-.681-1.71-10.645,4.24A36.589,36.589,0,0,0,329.039,441.1c8.334,20.925,37.7,36.1,51.4,43.512a15.837,15.837,0,0,0,13.4.773l3.933-1.566-4.078-10.239C398.232,455.972,403.174,429.468,397.023,414.025Z" fill="#e09841"/>
        <path id="Path_5" data-name="Path 5" d="M339.683,436.864c8.283,20.794,38.632,39.178,52.46,46.68a6.478,6.478,0,0,0,9.3-3.819c4.616-15.4,13.767-50.993,6.221-69.939a36.59,36.59,0,1,0-67.985,27.078Z" fill="#eebd4e"/>
        <circle id="Ellipse_10" data-name="Ellipse 10" cx="26.064" cy="26.064" r="26.064" transform="translate(345.283 401.562) rotate(-6.529)" fill="#d3ebf4"/>
        <ellipse id="Ellipse_11" data-name="Ellipse 11" cx="22.686" cy="26.064" rx="22.686" ry="26.064" transform="matrix(0.929, -0.37, 0.37, 0.929, 340.283, 409.924)" fill="#fff"/>
      </g>
      <g id="Group_11" data-name="Group 11">
        <path id="Path_6" data-name="Path 6" d="M533.612,867.844l-69.569-91.276,68.63,65.82Z" fill="#7737b5"/>
        <path id="Path_7" data-name="Path 7" d="M572.611,815.731l-89.623,45.176-18.945-84.339Z" fill="#a55eea"/>
        <path id="Path_8" data-name="Path 8" d="M542.675,830.821l-78.632-54.253,58.839,64.23,10.73,27.046Z" fill="#923ad8"/>
      </g>
      <g id="Group_14" data-name="Group 14" transform="translate(-34.093 -190)">
        <rect id="Rectangle_4" data-name="Rectangle 4" width="1.724" height="14.794" transform="translate(847.617 579.465) rotate(21.547)" fill="#e09841"/>
        <rect id="Rectangle_5" data-name="Rectangle 5" width="1.724" height="14.794" transform="matrix(0.93, 0.367, -0.367, 0.93, 861.696, 585.024)" fill="#e09841"/>
        <rect id="Rectangle_6" data-name="Rectangle 6" width="1.724" height="14.794" transform="translate(854.555 582.204) rotate(21.548)" fill="#e09841"/>
        <g id="Group_13" data-name="Group 13">
          <path id="Rectangle_7" data-name="Rectangle 7" d="M2.169,0H18.752a2.169,2.169,0,0,1,2.169,2.169V8.24a5.089,5.089,0,0,1-5.089,5.089H5.089A5.089,5.089,0,0,1,0,8.24V2.169A2.169,2.169,0,0,1,2.169,0Z" transform="translate(841.362 589.529) rotate(21.548)" fill="#e09841"/>
          <g id="Group_12" data-name="Group 12" clip-path="url(#clip-path-2)">
            <path id="Rectangle_8" data-name="Rectangle 8" d="M2.169,0H18.752a2.169,2.169,0,0,1,2.169,2.169V8.24a5.089,5.089,0,0,1-5.089,5.089H5.089A5.089,5.089,0,0,1,0,8.24V2.169A2.169,2.169,0,0,1,2.169,0Z" transform="translate(840.578 586.236) rotate(21.547)" fill="#eebd4e"/>
          </g>
        </g>
        <path id="Path_9" data-name="Path 9" d="M845.415,583.077l16.821,6.642c11.447-10.529,28.9-9.566,36.107-27.818,6.574-16.648-3.043-31.8-19.691-38.375s-34.023-2.08-40.6,14.569C830.692,556.742,843.943,569.043,845.415,583.077Z" fill="#eebd4e"/>
        <path id="Path_10" data-name="Path 10" d="M848.522,584.3l10.607,4.189c9.117-11.45,20.87-12.737,28.078-30.99,6.574-16.648,1.943-29.832-8.555-33.977s-22.887,2.318-29.461,18.966C841.828,561.139,849.292,571.155,848.522,584.3Z" fill="#e09841"/>
        <path id="Path_11" data-name="Path 11" d="M851.417,585.447l4.817,1.9c6.947-12.307,13.39-15.691,20.6-33.944,6.574-16.648,6.588-28,1.82-29.88s-12.512,6.415-19.086,23.063C852.2,565.236,854.275,573.123,851.417,585.447Z" fill="#eebd4e"/>
      </g>
      <g id="Group_35" data-name="Group 35">
        <g id="Group_34" data-name="Group 34" clip-path="url(#clip-path-3)">
          <g id="Group_32" data-name="Group 32">
            <g id="Group_16" data-name="Group 16">
              <path id="Path_12" data-name="Path 12" d="M160.681,657.578S27.365,555.943-33.178,495.145a28.437,28.437,0,0,0-19.072-8.318l-49.071-1.879A4.972,4.972,0,0,0-106.026,492L2.633,727.522Z" fill="#923ad8"/>
              <g id="Group_15" data-name="Group 15" clip-path="url(#clip-path-4)">
                <path id="Path_13" data-name="Path 13" d="M146.337,657.346c-72,7.883-222.826-6.058-233.94-179.9s-223.8-77.188-223.8-77.188l-42.363,207.006s57.2,113.179,73.463,127.441,128.6,53.264,128.6,53.264l226.77-69.3Z" fill="#6b2ca8"/>
              </g>
            </g>
            <path id="Path_15" data-name="Path 15" d="M830.039,679.348l66.587-1.166,35.548-59.153-21.074.536Z" fill="#cee5f2"/>
            <g id="Group_18" data-name="Group 18">
              <path id="Path_16" data-name="Path 16" d="M896.626,678.182l-5.967-10.261-528.3-69.732-4.022,19.178C377.111,663.35,388.7,726.716,388.7,726.716c43.562-9.882,99.828-19.285,163.449-27.139l-36.626,34.8,115.125-43.313C714.689,683.147,806.614,678.2,896.626,678.182Z" fill="#cee5f2"/>
              <g id="Group_17" data-name="Group 17" clip-path="url(#clip-path-5)">
                <path id="Path_17" data-name="Path 17" d="M917.4,690.287l-5.967-10.261-528.3-69.732-4.021,19.178c18.772,45.983,30.362,109.349,30.362,109.349,43.562-9.882,107.869-20.62,171.489-28.474L536.3,746.48l115.125-43.313C735.466,695.252,827.391,690.3,917.4,690.287Z" fill="#80a1af"/>
              </g>
            </g>
            <g id="Group_19" data-name="Group 19">
              <path id="Path_19" data-name="Path 19" d="M-40.351,706.986,660.28,451.892a170.677,170.677,0,0,1,79.287-9.016h0a111.893,111.893,0,0,1,53.63,21.678l5.273,3.973a28.4,28.4,0,0,1,6.931,37.836L791.871,527.8a169.472,169.472,0,0,1-83.1,67.976l-40.705,12.78a426.928,426.928,0,0,0-107.7,51.46c-20.854,13.8-45.288,28.346-67.382,35.947-30.855,10.616-153.13,45.556-221.187,66.361a226.7,226.7,0,0,1-95.364,8.035c-75.08-9.7-213.922-27.557-245.01-30.9Z" fill="#fff"/>
            </g>
            <g id="Group_23" data-name="Group 23">
              <path id="Path_20" data-name="Path 20" d="M-40.351,706.986,660.28,451.892a170.677,170.677,0,0,1,79.287-9.016h0a111.893,111.893,0,0,1,53.63,21.678l5.273,3.973a28.4,28.4,0,0,1,6.931,37.836L791.871,527.8a169.472,169.472,0,0,1-83.1,67.976l-40.705,12.78a426.928,426.928,0,0,0-107.7,51.46c-20.854,13.8-45.288,28.346-67.382,35.947-30.855,10.616-153.13,45.556-221.187,66.361a226.7,226.7,0,0,1-95.364,8.035c-75.08-9.7-213.922-27.557-245.01-30.9Z" fill="#fff"/>
              <g id="Group_22" data-name="Group 22" clip-path="url(#clip-path-6)">
                <path id="Path_21" data-name="Path 21" d="M-87,786.24,382.762,601.645A410.832,410.832,0,0,1,492.58,575.178l30.934-3.059a410.816,410.816,0,0,0,84.588-17.49l128.514-41.056a73.66,73.66,0,0,0,51.176-73.351l-.141-3.249,78.908,158.835L562.733,889.789,34.146,923.645Z" fill="#cee5f2"/>
                <g id="Group_21" data-name="Group 21">
                  <path id="Path_22" data-name="Path 22" d="M-96.213,531.595S-2.919,650.748,125.174,639.809s301.2,54.291,99.349,61.358C-100.127,712.533,329,952.435,329,952.435L-297.731,828.609l-101.446-95.653-10.115-91.682Z" fill="#923ad8"/>
                  <g id="Group_20" data-name="Group 20" clip-path="url(#clip-path-7)">
                    <path id="Path_23" data-name="Path 23" d="M295.309,657.453c-39,10.146-260.8-61.575-320.356,131.718S276.562,917.688,276.562,917.688l70.267-144.412Z" fill="#6b2ca8"/>
                  </g>
                </g>
              </g>
            </g>
            <path id="Path_26" data-name="Path 26" d="M-228.824,544.671l-63.12,5.676-65.23-77.394,21.074-.535Z" fill="#cee5f2"/>
            <g id="Group_24" data-name="Group 24">
              <path id="Path_27" data-name="Path 27" d="M605.077,707.474c4.316,18.366,34.363,54.474,117.493,5.59l-29.579-86.018S591.694,650.52,605.077,707.474Z" fill="#cee5f2"/>
              <ellipse id="Ellipse_12" data-name="Ellipse 12" cx="40.573" cy="46.51" rx="40.573" ry="46.51" transform="matrix(1, -0.025, 0.025, 1, 661.206, 626.742)" fill="#80a1af"/>
              <ellipse id="Ellipse_13" data-name="Ellipse 13" cx="34.378" cy="39.409" rx="34.378" ry="39.409" transform="translate(667.578 633.684) rotate(-1.456)" fill="#21344f"/>
            </g>
            <path id="Path_28" data-name="Path 28" d="M38.849,719.59l75.529-32.429-273.121,2.1-43.544,9Z" fill="#cee5f2"/>
            <path id="Path_29" data-name="Path 29" d="M771.674,476.817l-24.5,3.305a3.567,3.567,0,0,1-3.777-2.185l-4.158-10.177a3.565,3.565,0,0,1,2.793-4.878l23.061-3.308a3.564,3.564,0,0,1,3.63,1.811l5.6,10.181A3.565,3.565,0,0,1,771.674,476.817Z" fill="#21344f"/>
            <path id="Path_30" data-name="Path 30" d="M728.147,483.83l9.712-1.717a2.712,2.712,0,0,0,2.113-3.486l-3.822-12.1a2.711,2.711,0,0,0-3.24-1.815h0a2.712,2.712,0,0,0-1.838,1.568l-5.89,13.821A2.71,2.71,0,0,0,728.147,483.83Z" fill="#21344f"/>
            <g id="Group_26" data-name="Group 26">
              <g id="Group_25" data-name="Group 25" clip-path="url(#clip-path-8)">
                <path id="Path_31" data-name="Path 31" d="M803.862,476.583l-22.69-.927a2.4,2.4,0,0,1-2.022-1.268l-6.457-12.071a2.4,2.4,0,0,1,2.088-3.538l20.572-.278a2.4,2.4,0,0,1,2.052,1.1l8.574,13.277A2.4,2.4,0,0,1,803.862,476.583Z" fill="#21344f"/>
              </g>
            </g>
            <g id="Group_28" data-name="Group 28">
              <path id="Path_33" data-name="Path 33" d="M426.92,574.055l-708.3-36.214-10.56,12.506c58.3,13.581,117.186,26.862,174.415,39.736l-53.59,45.116,95.1-35.779q16.587,3.734,32.9,7.416l-48.527,38.459L-9.6,614.426q20.709,4.705,40.777,9.314L-5.506,658.6l71.328-26.835c97.647,22.779,179.8,43.6,230.4,61.677,0,0,106.216-30.644,146.917-84.6a21.727,21.727,0,0,0-16.22-34.783Z" fill="#cee5f2"/>
              <g id="Group_27" data-name="Group 27" clip-path="url(#clip-path-9)">
                <path id="Path_34" data-name="Path 34" d="M427.231,586.285l-739.838-35.413,20.974,11.7c58.3,13.581,117.185,26.862,174.415,39.737l-53.59,45.116,95.1-35.779q16.588,3.733,32.9,7.416l-48.528,38.458,82.049-30.868q20.709,4.7,40.776,9.314L-5.2,670.826,66.132,643.99c97.647,22.78,179.8,43.6,230.4,61.677,0,0,106.216-30.643,146.917-84.6a21.727,21.727,0,0,0-16.22-34.783Z" fill="#80a1af"/>
              </g>
            </g>
            <g id="Group_29" data-name="Group 29">
              <path id="Path_36" data-name="Path 36" d="M134.381,645.7c4.974,21.171,39.61,62.792,135.434,6.444l-34.1-99.154S118.953,580.048,134.381,645.7Z" fill="#cee5f2"/>
              <ellipse id="Ellipse_14" data-name="Ellipse 14" cx="46.768" cy="53.612" rx="46.768" ry="53.612" transform="translate(199.08 552.639) rotate(-1.455)" fill="#80a1af"/>
              <ellipse id="Ellipse_15" data-name="Ellipse 15" cx="39.628" cy="45.427" rx="39.628" ry="45.427" transform="translate(206.426 560.641) rotate(-1.455)" fill="#21344f"/>
            </g>
            <g id="Group_30" data-name="Group 30">
              <path id="Path_37" data-name="Path 37" d="M466.307,585.024l-2.622.972a2.432,2.432,0,0,1-3.187-1.619l-1.745-6.181a2.431,2.431,0,0,1,1.473-2.933l2.378-.908a2.432,2.432,0,0,1,3.181,1.52l1.989,6.115A2.433,2.433,0,0,1,466.307,585.024Z" fill="#21344f"/>
              <path id="Path_38" data-name="Path 38" d="M476.983,580.95l-2.622.973a2.432,2.432,0,0,1-3.187-1.62l-1.745-6.18a2.433,2.433,0,0,1,1.473-2.934l2.378-.908a2.433,2.433,0,0,1,3.181,1.52l1.99,6.116A2.433,2.433,0,0,1,476.983,580.95Z" fill="#21344f"/>
              <path id="Path_39" data-name="Path 39" d="M487.445,576.679l-2.622.973a2.434,2.434,0,0,1-3.187-1.62l-1.745-6.181a2.432,2.432,0,0,1,1.473-2.933l2.378-.908a2.431,2.431,0,0,1,3.181,1.52l1.99,6.116A2.433,2.433,0,0,1,487.445,576.679Z" fill="#21344f"/>
              <path id="Path_40" data-name="Path 40" d="M497.729,573.079l-2.623.972a2.433,2.433,0,0,1-3.187-1.619l-1.745-6.181a2.432,2.432,0,0,1,1.474-2.933l2.377-.909a2.434,2.434,0,0,1,3.182,1.521l1.989,6.115A2.434,2.434,0,0,1,497.729,573.079Z" fill="#21344f"/>
              <path id="Path_41" data-name="Path 41" d="M508.4,569.005l-2.622.973a2.433,2.433,0,0,1-3.187-1.62l-1.745-6.18a2.432,2.432,0,0,1,1.473-2.934l2.378-.908a2.432,2.432,0,0,1,3.181,1.52l1.989,6.116A2.432,2.432,0,0,1,508.4,569.005Z" fill="#21344f"/>
              <path id="Path_42" data-name="Path 42" d="M518.867,564.734l-2.622.972a2.432,2.432,0,0,1-3.187-1.619l-1.745-6.181a2.432,2.432,0,0,1,1.473-2.933l2.378-.908a2.432,2.432,0,0,1,3.181,1.52l1.99,6.115A2.434,2.434,0,0,1,518.867,564.734Z" fill="#21344f"/>
              <path id="Path_43" data-name="Path 43" d="M528.9,561.017l-2.623.973a2.433,2.433,0,0,1-3.187-1.62l-1.745-6.18a2.433,2.433,0,0,1,1.474-2.934l2.377-.908a2.434,2.434,0,0,1,3.182,1.52l1.989,6.116A2.432,2.432,0,0,1,528.9,561.017Z" fill="#21344f"/>
              <path id="Path_44" data-name="Path 44" d="M539.579,556.944l-2.622.972a2.432,2.432,0,0,1-3.187-1.619l-1.745-6.181a2.431,2.431,0,0,1,1.473-2.933l2.378-.908a2.432,2.432,0,0,1,3.181,1.52l1.989,6.115A2.432,2.432,0,0,1,539.579,556.944Z" fill="#21344f"/>
              <path id="Path_45" data-name="Path 45" d="M550.041,552.673l-2.622.972a2.432,2.432,0,0,1-3.187-1.62l-1.745-6.18a2.433,2.433,0,0,1,1.473-2.934l2.378-.908a2.433,2.433,0,0,1,3.181,1.52l1.989,6.116A2.433,2.433,0,0,1,550.041,552.673Z" fill="#21344f"/>
            </g>
            <g id="Group_31" data-name="Group 31">
              <path id="Path_46" data-name="Path 46" d="M569.766,544.236l-2.623.973a2.434,2.434,0,0,1-3.187-1.62l-1.745-6.181a2.432,2.432,0,0,1,1.474-2.933l2.377-.908a2.433,2.433,0,0,1,3.182,1.52l1.989,6.116A2.432,2.432,0,0,1,569.766,544.236Z" fill="#21344f"/>
              <path id="Path_47" data-name="Path 47" d="M580.442,540.162l-2.622.973a2.432,2.432,0,0,1-3.187-1.62l-1.745-6.18a2.432,2.432,0,0,1,1.473-2.934l2.377-.908a2.434,2.434,0,0,1,3.182,1.52l1.989,6.116A2.431,2.431,0,0,1,580.442,540.162Z" fill="#21344f"/>
              <path id="Path_48" data-name="Path 48" d="M590.9,535.891l-2.622.973a2.433,2.433,0,0,1-3.187-1.62l-1.745-6.18a2.432,2.432,0,0,1,1.473-2.934l2.378-.908a2.432,2.432,0,0,1,3.181,1.52l1.989,6.116A2.431,2.431,0,0,1,590.9,535.891Z" fill="#21344f"/>
              <path id="Path_49" data-name="Path 49" d="M601.188,532.291l-2.623.972a2.433,2.433,0,0,1-3.187-1.619l-1.745-6.181a2.432,2.432,0,0,1,1.473-2.933l2.378-.908a2.431,2.431,0,0,1,3.181,1.52l1.99,6.115A2.434,2.434,0,0,1,601.188,532.291Z" fill="#21344f"/>
              <path id="Path_50" data-name="Path 50" d="M611.864,528.217l-2.623.973a2.433,2.433,0,0,1-3.187-1.62l-1.745-6.18a2.433,2.433,0,0,1,1.474-2.934l2.377-.908a2.433,2.433,0,0,1,3.182,1.52l1.989,6.116A2.432,2.432,0,0,1,611.864,528.217Z" fill="#21344f"/>
              <path id="Path_51" data-name="Path 51" d="M622.326,523.946l-2.622.972a2.433,2.433,0,0,1-3.188-1.619l-1.745-6.181a2.432,2.432,0,0,1,1.474-2.933l2.377-.908a2.433,2.433,0,0,1,3.182,1.52l1.989,6.116A2.432,2.432,0,0,1,622.326,523.946Z" fill="#21344f"/>
              <path id="Path_52" data-name="Path 52" d="M632.361,520.23l-2.622.972a2.433,2.433,0,0,1-3.187-1.62l-1.745-6.18a2.434,2.434,0,0,1,1.473-2.934l2.378-.908a2.433,2.433,0,0,1,3.181,1.52l1.99,6.116A2.433,2.433,0,0,1,632.361,520.23Z" fill="#21344f"/>
              <path id="Path_53" data-name="Path 53" d="M643.038,516.156l-2.623.972a2.433,2.433,0,0,1-3.187-1.619l-1.745-6.181a2.432,2.432,0,0,1,1.474-2.933l2.377-.908a2.433,2.433,0,0,1,3.182,1.52l1.989,6.116A2.432,2.432,0,0,1,643.038,516.156Z" fill="#21344f"/>
              <path id="Path_54" data-name="Path 54" d="M653.5,511.885l-2.623.972a2.433,2.433,0,0,1-3.187-1.62l-1.745-6.18a2.433,2.433,0,0,1,1.474-2.934l2.377-.908a2.434,2.434,0,0,1,3.182,1.52l1.989,6.116A2.434,2.434,0,0,1,653.5,511.885Z" fill="#21344f"/>
            </g>
          </g>
          <g id="Group_33" data-name="Group 33">
            <path id="Path_55" data-name="Path 55" d="M752.85,431.287s-34.876-18.395-82.118-6.843c-23.559,5.76-309.311,115.235-309.311,115.235" fill="none" stroke="#538cb7" stroke-width="1.721"/>
            <path id="Path_56" data-name="Path 56" d="M340.6,548.038H305.366a14.144,14.144,0,0,1-9.007-3.232c-6.313-5.2-20.433-14.833-38.34-14.833A57.806,57.806,0,0,0,222.78,541.8a13.994,13.994,0,0,1-8.9,2.881l-77.148-1.809" fill="none" stroke="#538cb7" stroke-width="1.721"/>
          </g>
        </g>
      </g>
    </g>
  </g>
</svg>
