<svg id="Group_63" data-name="Group 63" xmlns="http://www.w3.org/2000/svg" width="402.967" height="42.173" viewBox="0 0 402.967 42.173">
  <g id="Group_62" data-name="Group 62">
    <rect id="Rectangle_63" data-name="Rectangle 63" width="2.233" height="42.173" transform="translate(0 0)" fill="#474747"/>
    <rect id="Rectangle_64" data-name="Rectangle 64" width="4.466" height="42.173" transform="translate(6.144 0)" fill="#474747"/>
    <rect id="Rectangle_65" data-name="Rectangle 65" width="2.233" height="42.173" transform="translate(17.424 0)" fill="#474747"/>
    <rect id="Rectangle_66" data-name="Rectangle 66" width="4.467" height="42.173" transform="translate(23.567 0)" fill="#474747"/>
    <path id="Path_212" data-name="Path 212" d="M342.8,378.645h-2.234V336.472H342.8Zm-8.713,0H331.86V336.472h2.232Zm-5.806,0h-2.232V336.472h2.232Zm-8.713,0h-2.232V336.472h2.232Z" transform="translate(-285.398 -336.472)" fill="#474747"/>
    <path id="Path_213" data-name="Path 213" d="M345.376,378.645H340.91V336.472h4.466Zm-8.713,0H332.2V336.472h4.464Z" transform="translate(-270.881 -336.472)" fill="#474747"/>
    <path id="Path_214" data-name="Path 214" d="M348.883,378.645H346.65V336.472h2.232Zm-5.808,0h-2.232V336.472h2.232Z" transform="translate(-262.437 -336.472)" fill="#474747"/>
    <rect id="Rectangle_67" data-name="Rectangle 67" width="4.466" height="42.173" transform="translate(90.356 0)" fill="#474747"/>
    <rect id="Rectangle_68" data-name="Rectangle 68" width="2.233" height="42.173" transform="translate(98.732 0)" fill="#474747"/>
    <path id="Path_215" data-name="Path 215" d="M367.408,378.645h-4.464V336.472h4.464Zm-8.711,0h-4.466V336.472H358.7Z" transform="translate(-249.356 -336.472)" fill="#474747"/>
    <path id="Path_216" data-name="Path 216" d="M384,378.645h-2.234V336.472H384Zm-5.808,0h-2.234V336.472h2.234Zm-5.808,0h-2.232V336.472h2.232Zm-5.807,0h-2.234V336.472h2.234Z" transform="translate(-239.477 -336.472)" fill="#474747"/>
    <path id="Path_217" data-name="Path 217" d="M390.909,378.645h-4.464V336.472h4.464Zm-8.711,0h-4.466V336.472H382.2Z" transform="translate(-226.396 -336.472)" fill="#474747"/>
    <path id="Path_218" data-name="Path 218" d="M395.886,378.645h-2.234V336.472h2.234Zm-5.808,0h-2.234V336.472h2.234Z" transform="translate(-216.516 -336.472)" fill="#474747"/>
    <path id="Path_219" data-name="Path 219" d="M407.068,378.645H402.6V336.472h4.466Zm-8.713,0h-4.466V336.472h4.466Z" transform="translate(-210.61 -336.472)" fill="#474747"/>
    <rect id="Rectangle_69" data-name="Rectangle 69" width="2.234" height="42.173" transform="translate(200.367 0)" fill="#474747"/>
    <rect id="Rectangle_70" data-name="Rectangle 70" width="4.466" height="42.173" transform="translate(206.51 0)" fill="#474747"/>
    <path id="Path_220" data-name="Path 220" d="M417.916,378.645h-2.234V336.472h2.234Zm-5.806,0h-2.232V336.472h2.232Z" transform="translate(-194.99 -336.472)" fill="#474747"/>
    <path id="Path_221" data-name="Path 221" d="M429.1,378.645h-4.466V336.472H429.1Zm-8.711,0h-4.466V336.472h4.466Z" transform="translate(-189.084 -336.472)" fill="#474747"/>
    <path id="Path_222" data-name="Path 222" d="M432.606,378.645h-2.234V336.472h2.234Zm-5.808,0h-2.234V336.472H426.8Z" transform="translate(-180.641 -336.472)" fill="#474747"/>
    <path id="Path_223" data-name="Path 223" d="M443.788,378.645h-4.466V336.472h4.466Zm-8.713,0h-4.466V336.472h4.466Z" transform="translate(-174.735 -336.472)" fill="#474747"/>
    <rect id="Rectangle_71" data-name="Rectangle 71" width="2.232" height="42.173" transform="translate(272.963 0)" fill="#474747"/>
    <rect id="Rectangle_72" data-name="Rectangle 72" width="4.466" height="42.173" transform="translate(282.011 0)" fill="#474747"/>
    <rect id="Rectangle_73" data-name="Rectangle 73" width="2.234" height="42.173" transform="translate(290.386 0)" fill="#474747"/>
    <rect id="Rectangle_74" data-name="Rectangle 74" width="4.467" height="42.173" transform="translate(296.529 0)" fill="#474747"/>
    <path id="Path_224" data-name="Path 224" d="M463.451,378.645h-2.232V336.472h2.232Zm-5.808,0H455.41V336.472h2.232Z" transform="translate(-150.504 -336.472)" fill="#474747"/>
    <rect id="Rectangle_75" data-name="Rectangle 75" width="4.466" height="42.173" transform="translate(316.857 0)" fill="#474747"/>
    <path id="Path_225" data-name="Path 225" d="M473.733,378.645H471.5V336.472h2.234Zm-5.81,0h-2.232V336.472h2.232Z" transform="translate(-140.459 -336.472)" fill="#474747"/>
    <rect id="Rectangle_76" data-name="Rectangle 76" width="4.466" height="42.173" transform="translate(337.183 0)" fill="#474747"/>
    <path id="Path_226" data-name="Path 226" d="M492.726,378.645h-2.234V336.472h2.234Zm-5.808,0h-2.232V336.472h2.232Zm-8.713,0h-2.232V336.472h2.232Z" transform="translate(-130.414 -336.472)" fill="#474747"/>
    <path id="Path_227" data-name="Path 227" d="M499.6,378.645h-4.466V336.472H499.6Zm-8.711,0h-4.466V336.472h4.466Z" transform="translate(-120.202 -336.472)" fill="#474747"/>
    <rect id="Rectangle_77" data-name="Rectangle 77" width="2.234" height="42.173" transform="translate(383.309 0)" fill="#474747"/>
    <rect id="Rectangle_78" data-name="Rectangle 78" width="4.466" height="42.173" transform="translate(389.454 0)" fill="#474747"/>
    <rect id="Rectangle_79" data-name="Rectangle 79" width="2.234" height="42.173" transform="translate(400.733 0)" fill="#474747"/>
  </g>
</svg>
