<svg xmlns="http://www.w3.org/2000/svg" width="27" height="27" viewBox="0 0 27 27">
  <g id="MDI_calendar-month-outline" data-name="MDI / calendar-month-outline" transform="translate(0.062)">
    <g id="Boundary" transform="translate(-0.062)" fill="#c8c2c2" stroke="rgba(0,0,0,0)" stroke-width="1" opacity="0">
      <rect width="27" height="27" stroke="none"/>
      <rect x="0.5" y="0.5" width="26" height="26" fill="none"/>
    </g>
    <path id="Path_calendar-month-outline" data-name="Path / calendar-month-outline" d="M7.5,13.25H9.75V15.5H7.5V13.25M23.25,6.5V22.25A2.25,2.25,0,0,1,21,24.5H5.25A2.249,2.249,0,0,1,3,22.25V6.5A2.25,2.25,0,0,1,5.25,4.25H6.375V2h2.25V4.25h9V2h2.25V4.25H21A2.25,2.25,0,0,1,23.25,6.5m-18,2.25H21V6.5H5.25V8.75M21,22.25V11H5.25V22.25H21M16.5,15.5V13.25h2.25V15.5H16.5m-4.5,0V13.25h2.25V15.5H12M7.5,17.75H9.75V20H7.5V17.75m9,2.25V17.75h2.25V20H16.5M12,20V17.75h2.25V20Z" transform="translate(0.313 0.25)" fill="#c8c2c2"/>
  </g>
</svg>
