<svg xmlns="http://www.w3.org/2000/svg" width="51.05" height="62.609" viewBox="0 0 51.05 62.609">
  <g id="fire" transform="translate(-47.262)">
    <path id="Path_70" data-name="Path 70" d="M48.112,30.534a25.66,25.66,0,0,0,7.658,6.71S52.015,5.511,76.479,0c-6.268,23,7.973,29.492,13.164,17.338C98.312,28.912,91.73,39.01,91.73,39.01c3.555.512,6.541-3.371,6.541-3.371.027.478.042.96.042,1.445a25.525,25.525,0,1,1-50.2-6.55Z" fill="#ff6536"/>
    <path id="Path_71" data-name="Path 71" d="M281.484,35.639s-2.986,3.883-6.541,3.371c0,0,6.582-10.1-2.087-21.672C267.665,29.492,253.424,23,259.692,0A27.443,27.443,0,0,0,256,1.1V62.609a25.525,25.525,0,0,0,25.525-25.525C281.525,36.6,281.51,36.117,281.484,35.639Z" transform="translate(-183.213 0)" fill="#ff421d"/>
    <path id="Path_72" data-name="Path 72" d="M164.456,292.081a11.194,11.194,0,1,0,18.67-8.332c-4.328,5.88-10.5-3.039-5.689-9.553C177.437,274.2,164.456,275.823,164.456,292.081Z" transform="translate(-102.863 -240.666)" fill="#fbbf00"/>
    <path id="Path_73" data-name="Path 73" d="M267.194,292.081a11.166,11.166,0,0,0-3.718-8.332c-4.328,5.88-10.5-3.039-5.689-9.553a11.263,11.263,0,0,0-1.787.43v28.65A11.194,11.194,0,0,0,267.194,292.081Z" transform="translate(-183.213 -240.666)" fill="#ffa900"/>
  </g>
</svg>
