<svg xmlns="http://www.w3.org/2000/svg" width="38.812" height="32.237" viewBox="0 0 38.812 32.237">
  <g id="Icon_ionic-ios-airplane" data-name="Icon ionic-ios-airplane" transform="translate(-1.249 -4.063)" fill="#dedede">
    <path d="M 17.05656623840332 35.79948425292969 L 15.10923671722412 35.79948425292969 C 14.76688671112061 35.79948425292969 14.46531677246094 35.64627456665039 14.28185749053955 35.37915420532227 C 14.06961631774902 35.07012557983398 14.03460884094238 34.64499664306641 14.18767929077148 34.24041366577148 L 18.15013313293457 22.9383430480957 L 8.615277290344238 22.72680473327637 L 8.610827445983887 22.72670364379883 L 8.606376647949219 22.72652435302734 C 8.606306076049805 22.72652435302734 8.606235504150391 22.72652435302734 8.606164932250977 22.72652435302734 C 8.558095932006836 22.72652435302734 8.506770133972168 22.75365257263184 8.474496841430664 22.79399490356445 L 8.472146987915039 22.79692459106445 L 8.469766616821289 22.79981422424316 L 5.375058650970459 26.55122947692871 C 5.033119678497314 26.98125267028809 4.501291275024414 27.23782348632812 3.951137065887451 27.23782348632812 L 2.578967094421387 27.23782348632812 C 2.309777021408081 27.23782348632812 2.056517124176025 27.10784339904785 1.901497006416321 26.89013481140137 C 1.749778270721436 26.67705917358398 1.708253383636475 26.4029426574707 1.789214372634888 26.15378379821777 L 3.421576976776123 20.5184440612793 L 3.42812705039978 20.4958438873291 L 3.43675708770752 20.47397422790527 C 3.513346910476685 20.27994346618652 3.513346910476685 20.05739402770996 3.43675708770752 19.86336326599121 L 3.42812705039978 19.84149360656738 L 3.421576976776123 19.81889343261719 L 1.789214372634888 14.18355464935303 C 1.708253383636475 13.9343957901001 1.749778270721436 13.66027927398682 1.901497006416321 13.44720363616943 C 2.056517124176025 13.22949409484863 2.309777021408081 13.09951400756836 2.578967094421387 13.09951400756836 L 3.959347009658813 13.09951400756836 C 4.517412185668945 13.09951400756836 5.049928665161133 13.35712337493896 5.385659217834473 13.78903675079346 L 8.420976638793945 17.48063468933105 L 8.423107147216797 17.48322486877441 L 8.425207138061523 17.48584365844727 C 8.44538688659668 17.51106452941895 8.488726615905762 17.55338478088379 8.55230712890625 17.55338478088379 L 8.557867050170898 17.55327415466309 L 8.563787460327148 17.55304336547852 L 8.569717407226562 17.55295372009277 L 18.15701675415039 17.41196250915527 L 14.1958532333374 6.12145471572876 C 14.04280567169189 5.716904163360596 14.07784938812256 5.291841983795166 14.29006671905518 4.98284387588501 C 14.47353744506836 4.715713977813721 14.77510738372803 4.562503814697266 15.11745738983154 4.562503814697266 L 17.06478691101074 4.562503814697266 C 17.68020820617676 4.562503814697266 18.26505088806152 4.88227653503418 18.59299468994141 5.397586822509766 L 26.4823169708252 17.21129608154297 L 31.6192512512207 17.07674026489258 C 31.91681671142578 17.05924034118652 32.85756683349609 17.05169486999512 33.11996841430664 17.05169486999512 C 34.94009780883789 17.05169486999512 36.51305770874023 17.3351936340332 37.66879653930664 17.87153434753418 C 38.88870620727539 18.43766403198242 39.560546875 19.26076316833496 39.560546875 20.1892147064209 C 39.560546875 21.11709403991699 38.88728713989258 21.93888473510742 37.66479873657227 22.50320434570312 C 36.50932693481445 23.03658485412598 34.93774795532227 23.31851387023926 33.11996841430664 23.31851387023926 C 32.86051177978516 23.31851387023926 31.92494964599609 23.31097984313965 31.61993217468262 23.29348564147949 L 26.48213768005371 23.15890693664551 L 18.58468055725098 34.96456527709961 C 18.2519416809082 35.48751831054688 17.68128204345703 35.79948425292969 17.05656623840332 35.79948425292969 Z" stroke="none"/>
    <path d="M 15.11745643615723 5.062503814697266 C 14.65732765197754 5.062503814697266 14.50121688842773 5.522624969482422 14.66554641723633 5.949893951416016 L 18.78204727172852 17.68315315246582 C 18.82312774658203 17.78997421264648 18.74917793273926 17.90500450134277 18.63414764404297 17.90500450134277 L 8.577068328857422 18.05290412902832 C 8.363449096679688 18.06116485595703 8.166236877441406 17.96252250671387 8.034767150878906 17.79818344116211 L 4.994636535644531 14.10072326660156 C 4.748138427734375 13.7802848815918 4.361957550048828 13.59951400756836 3.959346771240234 13.59951400756836 L 2.578968048095703 13.59951400756836 C 2.348907470703125 13.59951400756836 2.192787170410156 13.82136344909668 2.266738891601562 14.03499412536621 L 3.901828765869141 19.67978477478027 C 4.025077819824219 19.99201393127441 4.025077819824219 20.34532356262207 3.901828765869141 20.65755462646484 L 2.266738891601562 26.30234527587891 C 2.192787170410156 26.5159740447998 2.348907470703125 26.73782348632812 2.578968048095703 26.73782348632812 L 3.951137542724609 26.73782348632812 C 4.353748321533203 26.73782348632812 4.739925384521484 26.5488338470459 4.986427307128906 26.23660278320312 L 8.084068298339844 22.48163414001465 C 8.215534210205078 22.31730461120605 8.420928955078125 22.21866226196289 8.626365661621094 22.22692489624023 L 18.62593650817871 22.44877433776855 C 18.740966796875 22.45698356628418 18.81491661071777 22.56380462646484 18.77383613586426 22.67061424255371 L 14.65732765197754 34.41209411621094 C 14.49299621582031 34.83935546875 14.64911651611328 35.29948425292969 15.10923767089844 35.29948425292969 L 17.05656623840332 35.29948425292969 C 17.50847625732422 35.29948425292969 17.92752647399902 35.06942367553711 18.16580772399902 34.69145202636719 L 26.16874694824219 22.72813415527344 C 26.20161819458008 22.67883491516113 26.25090789794922 22.65418434143066 26.30842590332031 22.65418434143066 L 31.64097595214844 22.79386329650879 C 31.91212844848633 22.81029319763184 32.84059906005859 22.81851387023926 33.11996841430664 22.81851387023926 C 36.75990676879883 22.81851387023926 39.060546875 21.6435432434082 39.060546875 20.1892147064209 C 39.060546875 18.7348747253418 36.76812744140625 17.55169486999512 33.11996841430664 17.55169486999512 C 32.84060668945312 17.55169486999512 31.90391731262207 17.55990409851074 31.64098739624023 17.57634353637695 L 26.30842590332031 17.71602439880371 C 26.25091743469238 17.71602439880371 26.19339752197266 17.69137382507324 26.16874694824219 17.64207458496094 L 18.17401695251465 5.670524597167969 C 17.93573760986328 5.292564392089844 17.50847625732422 5.062503814697266 17.06478691101074 5.062503814697266 L 15.11745643615723 5.062503814697266 M 15.11745643615723 4.062503814697266 L 17.06478691101074 4.062503814697266 C 17.84770011901855 4.062503814697266 18.59219360351562 4.468898773193359 19.01167106628418 5.124214172363281 L 26.74493980407715 16.70424461364746 L 31.59867286682129 16.57710647583008 C 31.93341827392578 16.55835342407227 32.89744567871094 16.55169486999512 33.11996841430664 16.55169486999512 C 37.27133560180664 16.55169486999512 40.060546875 18.01350402832031 40.060546875 20.1892147064209 C 40.060546875 22.36001396179199 37.27133560180664 23.81851387023926 33.11996841430664 23.81851387023926 C 32.8997688293457 23.81851387023926 31.94025421142578 23.81186103820801 31.59930038452148 23.79311752319336 L 26.74450492858887 23.66595268249512 L 19.00336647033691 35.23792266845703 C 18.57791709899902 35.90297317504883 17.85135269165039 36.29948425292969 17.05656623840332 36.29948425292969 L 15.10923767089844 36.29948425292969 C 14.59964752197266 36.29948425292969 14.14784622192383 36.06720352172852 13.86969757080078 35.66221237182617 C 13.56571960449219 35.21961975097656 13.50937652587891 34.62529754638672 13.7178783416748 34.06917190551758 L 17.45040130615234 23.42293548583984 L 8.762897491455078 23.23019599914551 L 5.763771057128906 26.86574554443359 C 5.327686309814453 27.41204833984375 4.651027679443359 27.73782348632812 3.951137542724609 27.73782348632812 L 2.578968048095703 27.73782348632812 C 2.148368835449219 27.73782348632812 1.742847442626953 27.52934265136719 1.494197845458984 27.18015289306641 C 1.252490997314453 26.84069442749023 1.1849365234375 26.40506744384766 1.310859680175781 26.00809097290039 L 2.954395294189453 20.33414459228516 L 2.971675872802734 20.29038429260254 C 3.001758575439453 20.21417427062988 3.001758575439453 20.1231632232666 2.971675872802734 20.04695320129395 L 2.954395294189453 20.00319480895996 L 1.310859680175781 14.32924652099609 C 1.1849365234375 13.93227195739746 1.252490997314453 13.49664497375488 1.494197845458984 13.15718460083008 C 1.742847442626953 12.8079948425293 2.148368835449219 12.59951400756836 2.578968048095703 12.59951400756836 L 3.959346771240234 12.59951400756836 C 4.6680908203125 12.59951400756836 5.345588684082031 12.92685317993164 5.775642395019531 13.47605514526367 L 8.714851379394531 17.05077171325684 L 17.45532608032227 16.92223358154297 L 13.72603416442871 6.292629241943359 C 13.51762199401855 5.736557006835938 13.57397651672363 5.142303466796875 13.87791633605957 4.699764251708984 C 14.15606689453125 4.294773101806641 14.60785675048828 4.062503814697266 15.11745643615723 4.062503814697266 Z" stroke="none" fill="#fff"/>
  </g>
</svg>
