<svg id="BACKGROUND" xmlns="http://www.w3.org/2000/svg" xmlns:xlink="http://www.w3.org/1999/xlink" width="1920" height="1080" viewBox="0 0 1920 1080">
  <defs>
    <clipPath id="clip-path">
      <rect id="Rectangle_2" data-name="Rectangle 2" width="842.317" height="862.432" transform="translate(1920 1077.967) rotate(180)" fill="none"/>
    </clipPath>
  </defs>
  <rect id="Rectangle_1" data-name="Rectangle 1" width="1920" height="1080" fill="#21344f"/>
  <g id="Group_4" data-name="Group 4" opacity="0.21">
    <g id="Group_3" data-name="Group 3" clip-path="url(#clip-path)">
      <g id="Group_1" data-name="Group 1">
        <circle id="Ellipse_1" data-name="Ellipse 1" cx="247.546" cy="247.546" r="247.546" transform="translate(1573.319 572.85) rotate(-45)" fill="#538cb7"/>
        <circle id="Ellipse_2" data-name="Ellipse 2" cx="175.206" cy="175.206" r="175.206" transform="translate(1413.16 830.777) rotate(-45)" fill="#538cb7"/>
        <circle id="Ellipse_3" data-name="Ellipse 3" cx="112.111" cy="112.111" r="112.111" transform="translate(1472.858 643.09) rotate(-45)" fill="#538cb7"/>
        <circle id="Ellipse_4" data-name="Ellipse 4" cx="166.02" cy="166.02" r="166.02" transform="translate(1160.573 778.934) rotate(-45)" fill="#538cb7"/>
        <circle id="Ellipse_5" data-name="Ellipse 5" cx="46.056" cy="46.056" r="46.056" transform="translate(1533.804 438.47) rotate(-71.79)" fill="#538cb7"/>
        <circle id="Ellipse_6" data-name="Ellipse 6" cx="23.028" cy="23.028" r="23.028" transform="translate(1471.705 984.366) rotate(-13.441)" fill="#538cb7"/>
      </g>
      <g id="Group_2" data-name="Group 2">
        <path id="Path_1" data-name="Path 1" d="M1204.947,718.055a165.979,165.979,0,0,1,293.561-92.274,112.167,112.167,0,0,1,154.474-132.307c16.759-130.2,133.066-225.583,265.323-214.955,136.276,10.952,237.873,130.3,226.921,266.58s-130.3,237.874-266.58,226.922a247.541,247.541,0,0,1-69.533-15.847A175.188,175.188,0,0,1,1477.647,858.1a166.008,166.008,0,0,1-272.7-140.042Z" fill="none" stroke="#538cb7" stroke-width="2.356"/>
        <circle id="Ellipse_7" data-name="Ellipse 7" cx="23.028" cy="23.028" r="23.028" transform="translate(1471.705 984.366) rotate(-13.441)" fill="#538cb7"/>
      </g>
    </g>
  </g>
</svg>
