<svg xmlns="http://www.w3.org/2000/svg" width="52.451" height="30.512" viewBox="0 0 52.451 30.512">
  <path id="Path_230" data-name="Path 230" d="M376.6,161.745l-.053-.03a20.065,20.065,0,0,0-9.952-2.156l-4.4.161L353.3,150.8c-2.181-2.188-5.994-3.515-10.1-3.515h0l8.493,12.741-15.055.515-5.006-3.21a4.677,4.677,0,0,0-2.467-.651h-4.527l7.772,5.792c0,.022-.006.045-.006.067h0c0,.024,0,.046.006.068l-7.772,5.792h4.527a4.677,4.677,0,0,0,2.467-.651l5.006-3.21,15.055.515L343.206,177.8h0c4.1,0,7.916-1.328,10.1-3.516l8.888-8.915,4.013.149a19.731,19.731,0,0,0,10.437-2.431A.713.713,0,0,0,376.6,161.745Z" transform="translate(-324.644 -147.29)" fill="#fff"/>
</svg>
